<svg xmlns="http://www.w3.org/2000/svg" xml:space="preserve" style="fill-rule:evenodd;clip-rule:evenodd;stroke-linejoin:round;stroke-miterlimit:2" viewBox="0 0 4323 4432"><path d="M4322.61 50.823c-11.149 166.776-150.539 252.788-341.383 500.566-31.39 40.754-2991.171 3555.428-3093.254 3678.47-99.017 119.347-229.222 354.737-486.262 58.814-134.731-155.112 58.211-302.535 141.14-393.055 89.559-97.757 1683.249-1793.353 2239.263-2390.116C2890.82 1388.829 4096.712 94.56 4150.035 55.617c157.215-114.817 170.666-18.473 172.576-4.794Z"/><path d="M617.305 2257.069c-63.926-1.834-63.516-1.848-69.04-1.981C26.975 2242.54-1.78 2260.584.075 2216.66c1.269-30.059 19.63-22.152 960.783-49.032 962.273-27.483 1019.996-39.209 986.118-7.981-31.054 28.625-109.245 114.105-118.6 120.924-20.308 14.802-728.54-17.781-1211.071-23.503Z" style="fill:#020202"/><path d="M1797.525 1890.48c-1106.118-42.802-1176.335-15.178-1141.489-72.048 15.046-24.555 1117.808-39.607 1645.292-68.656 48.563-2.674-43.297 77.172-89.383 124.942-41.943 43.476-52.678 21.017-414.421 15.762Z" style="fill:#020102"/><path d="M961.172 2646.722c-456.268-17.616-457.439-11.46-494.94-24.315-4.57-1.567-56.169-44.624 36.457-48.146 654.211-24.873 653.601-31.035 710.473-32.768 359.547-10.956 383.926-33.739 378.343-3.99-2.581 13.753-108.626 112.285-118.577 121.531-21.249 19.743-292.268-4.333-511.756-12.311Z" style="fill:#020202"/></svg>